<svg width="175" height="116" viewBox="0 0 175 116" fill="none" xmlns="http://www.w3.org/2000/svg">
<g filter="url(#filter0_d_58_938)">
<path d="M5.70455 8.17614V2.09091H34.375V8.17614H23.6875V37H16.392V8.17614H5.70455ZM35.2815 37V10.8182H42.3213V15.3864H42.594C43.0713 13.7614 43.8724 12.5341 44.9974 11.7045C46.1224 10.8636 47.4178 10.4432 48.8838 10.4432C49.2474 10.4432 49.6394 10.4659 50.0599 10.5114C50.4803 10.5568 50.8497 10.6193 51.1678 10.6989V17.142C50.8269 17.0398 50.3553 16.9489 49.7531 16.8693C49.1508 16.7898 48.5997 16.75 48.0997 16.75C47.0315 16.75 46.0769 16.983 45.236 17.4489C44.4065 17.9034 43.7474 18.5398 43.2588 19.358C42.7815 20.1761 42.5428 21.1193 42.5428 22.1875V37H35.2815ZM53.9621 37V10.8182H61.2235V37H53.9621ZM57.6098 7.44318C56.5303 7.44318 55.6041 7.08523 54.8314 6.36932C54.0701 5.64204 53.6894 4.77273 53.6894 3.76136C53.6894 2.76136 54.0701 1.90341 54.8314 1.1875C55.6041 0.460226 56.5303 0.0965891 57.6098 0.0965891C58.6894 0.0965891 59.6098 0.460226 60.3712 1.1875C61.1439 1.90341 61.5303 2.76136 61.5303 3.76136C61.5303 4.77273 61.1439 5.64204 60.3712 6.36932C59.6098 7.08523 58.6894 7.44318 57.6098 7.44318ZM80.0064 10.8182V16.2727H64.2393V10.8182H80.0064ZM67.8189 4.54545H75.0802V28.9545C75.0802 29.625 75.1825 30.1477 75.387 30.5227C75.5916 30.8864 75.8757 31.142 76.2393 31.2898C76.6143 31.4375 77.0461 31.5114 77.5348 31.5114C77.8757 31.5114 78.2166 31.483 78.5575 31.4261C78.8984 31.358 79.1598 31.3068 79.3416 31.2727L80.4836 36.6761C80.12 36.7898 79.6086 36.9205 78.9495 37.0682C78.2905 37.2273 77.4893 37.3239 76.5461 37.358C74.7961 37.4261 73.262 37.1932 71.9439 36.6591C70.637 36.125 69.62 35.2955 68.8927 34.1705C68.1655 33.0455 67.8075 31.625 67.8189 29.9091V4.54545ZM95.3248 37.5114C92.677 37.5114 90.3873 36.9489 88.4555 35.8239C86.535 34.6875 85.052 33.108 84.0066 31.0852C82.9611 29.0511 82.4384 26.6932 82.4384 24.0114C82.4384 21.3068 82.9611 18.9432 84.0066 16.9205C85.052 14.8864 86.535 13.3068 88.4555 12.1818C90.3873 11.0455 92.677 10.4773 95.3248 10.4773C97.9725 10.4773 100.257 11.0455 102.177 12.1818C104.109 13.3068 105.598 14.8864 106.643 16.9205C107.688 18.9432 108.211 21.3068 108.211 24.0114C108.211 26.6932 107.688 29.0511 106.643 31.0852C105.598 33.108 104.109 34.6875 102.177 35.8239C100.257 36.9489 97.9725 37.5114 95.3248 37.5114ZM95.3589 31.8864C96.5634 31.8864 97.5691 31.5455 98.3759 30.8636C99.1827 30.1705 99.7907 29.2273 100.2 28.0341C100.62 26.8409 100.83 25.483 100.83 23.9602C100.83 22.4375 100.62 21.0795 100.2 19.8864C99.7907 18.6932 99.1827 17.75 98.3759 17.0568C97.5691 16.3636 96.5634 16.017 95.3589 16.017C94.143 16.017 93.1202 16.3636 92.2907 17.0568C91.4725 17.75 90.8532 18.6932 90.4327 19.8864C90.0236 21.0795 89.8191 22.4375 89.8191 23.9602C89.8191 25.483 90.0236 26.8409 90.4327 28.0341C90.8532 29.2273 91.4725 30.1705 92.2907 30.8636C93.1202 31.5455 94.143 31.8864 95.3589 31.8864ZM119.234 21.8636V37H111.973V10.8182H118.893V15.4375H119.2C119.78 13.9148 120.751 12.7102 122.115 11.8239C123.478 10.9261 125.132 10.4773 127.075 10.4773C128.893 10.4773 130.478 10.875 131.831 11.6705C133.183 12.4659 134.234 13.6023 134.984 15.0795C135.734 16.5455 136.109 18.2955 136.109 20.3295V37H128.848V21.625C128.859 20.0227 128.45 18.7727 127.62 17.875C126.791 16.9659 125.649 16.5114 124.194 16.5114C123.217 16.5114 122.353 16.7216 121.603 17.142C120.865 17.5625 120.285 18.1761 119.865 18.983C119.456 19.7784 119.245 20.7386 119.234 21.8636ZM7.03409 95V60.0909H30.1477V66.1761H14.4148V74.4943H28.6136V80.5795H14.4148V95H7.03409ZM34.0159 95V68.8182H41.2772V95H34.0159ZM37.6636 65.4432C36.584 65.4432 35.6579 65.0852 34.8852 64.3693C34.1238 63.642 33.7431 62.7727 33.7431 61.7614C33.7431 60.7614 34.1238 59.9034 34.8852 59.1875C35.6579 58.4602 36.584 58.0966 37.6636 58.0966C38.7431 58.0966 39.6636 58.4602 40.4249 59.1875C41.1977 59.9034 41.584 60.7614 41.584 61.7614C41.584 62.7727 41.1977 63.642 40.4249 64.3693C39.6636 65.0852 38.7431 65.4432 37.6636 65.4432ZM60.0601 68.8182V74.2727H44.2931V68.8182H60.0601ZM47.8726 62.5455H55.134V86.9545C55.134 87.625 55.2363 88.1477 55.4408 88.5227C55.6453 88.8864 55.9294 89.142 56.2931 89.2898C56.6681 89.4375 57.0999 89.5114 57.5885 89.5114C57.9294 89.5114 58.2703 89.483 58.6113 89.4261C58.9522 89.358 59.2135 89.3068 59.3953 89.2727L60.5374 94.6761C60.1738 94.7898 59.6624 94.9205 59.0033 95.0682C58.3442 95.2273 57.5431 95.3239 56.5999 95.358C54.8499 95.4261 53.3158 95.1932 51.9976 94.6591C50.6908 94.125 49.6738 93.2955 48.9465 92.1705C48.2192 91.0455 47.8613 89.625 47.8726 87.9091V62.5455ZM71.0916 79.8636V95H63.8302V68.8182H70.7507V73.4375H71.0575C71.637 71.9148 72.6086 70.7102 73.9723 69.8239C75.3359 68.9261 76.9893 68.4773 78.9325 68.4773C80.7507 68.4773 82.3359 68.875 83.6882 69.6705C85.0405 70.4659 86.0916 71.6023 86.8416 73.0795C87.5916 74.5455 87.9666 76.2955 87.9666 78.3295V95H80.7052V79.625C80.7166 78.0227 80.3075 76.7727 79.478 75.875C78.6484 74.9659 77.5064 74.5114 76.0518 74.5114C75.0745 74.5114 74.2109 74.7216 73.4609 75.142C72.7223 75.5625 72.1427 76.1761 71.7223 76.983C71.3132 77.7784 71.103 78.7386 71.0916 79.8636ZM104.661 95.5114C101.968 95.5114 99.6501 94.9659 97.7069 93.875C95.7751 92.7727 94.2864 91.2159 93.241 89.2045C92.1955 87.1818 91.6728 84.7898 91.6728 82.0284C91.6728 79.3352 92.1955 76.9716 93.241 74.9375C94.2864 72.9034 95.758 71.3182 97.6557 70.1818C99.5648 69.0455 101.803 68.4773 104.372 68.4773C106.099 68.4773 107.707 68.7557 109.196 69.3125C110.696 69.858 112.002 70.6818 113.116 71.7841C114.241 72.8864 115.116 74.2727 115.741 75.9432C116.366 77.6023 116.678 79.5455 116.678 81.7727V83.767H94.5705V79.267H109.843C109.843 78.2216 109.616 77.2955 109.161 76.4886C108.707 75.6818 108.076 75.0511 107.269 74.5966C106.474 74.1307 105.548 73.8977 104.491 73.8977C103.389 73.8977 102.411 74.1534 101.559 74.6648C100.718 75.1648 100.059 75.8409 99.5819 76.6932C99.1046 77.5341 98.8603 78.4716 98.8489 79.5057V83.7841C98.8489 85.0795 99.0876 86.1989 99.5648 87.142C100.053 88.0852 100.741 88.8125 101.627 89.3239C102.514 89.8352 103.565 90.0909 104.781 90.0909C105.588 90.0909 106.326 89.9773 106.997 89.75C107.667 89.5227 108.241 89.1818 108.718 88.7273C109.196 88.2727 109.559 87.7159 109.809 87.0568L116.525 87.5C116.184 89.1136 115.485 90.5227 114.428 91.7273C113.383 92.9205 112.031 93.8523 110.372 94.5227C108.724 95.1818 106.821 95.5114 104.661 95.5114ZM142.241 76.2841L135.593 76.6932C135.48 76.125 135.236 75.6136 134.861 75.1591C134.486 74.6932 133.991 74.3239 133.378 74.0511C132.775 73.767 132.054 73.625 131.213 73.625C130.088 73.625 129.139 73.8636 128.366 74.3409C127.593 74.8068 127.207 75.4318 127.207 76.2159C127.207 76.8409 127.457 77.3693 127.957 77.8011C128.457 78.233 129.315 78.5795 130.531 78.8409L135.27 79.7955C137.815 80.3182 139.713 81.1591 140.963 82.3182C142.213 83.4773 142.838 85 142.838 86.8864C142.838 88.6023 142.332 90.108 141.321 91.4034C140.321 92.6989 138.946 93.7102 137.196 94.4375C135.457 95.1534 133.451 95.5114 131.179 95.5114C127.713 95.5114 124.951 94.7898 122.895 93.3466C120.849 91.892 119.65 89.9148 119.298 87.4148L126.44 87.0398C126.656 88.0966 127.179 88.9034 128.008 89.4602C128.838 90.0057 129.9 90.2784 131.196 90.2784C132.468 90.2784 133.491 90.0341 134.264 89.5455C135.048 89.0455 135.446 88.4034 135.457 87.6193C135.446 86.9602 135.167 86.4205 134.622 86C134.076 85.5682 133.236 85.2386 132.099 85.0114L127.565 84.108C125.008 83.5966 123.105 82.7102 121.855 81.4489C120.616 80.1875 119.997 78.5795 119.997 76.625C119.997 74.9432 120.451 73.4943 121.361 72.2784C122.281 71.0625 123.571 70.125 125.23 69.4659C126.9 68.8068 128.855 68.4773 131.093 68.4773C134.4 68.4773 137.003 69.1761 138.9 70.5739C140.809 71.9716 141.923 73.875 142.241 76.2841ZM168.234 76.2841L161.587 76.6932C161.473 76.125 161.229 75.6136 160.854 75.1591C160.479 74.6932 159.984 74.3239 159.371 74.0511C158.768 73.767 158.047 73.625 157.206 73.625C156.081 73.625 155.132 73.8636 154.359 74.3409C153.587 74.8068 153.2 75.4318 153.2 76.2159C153.2 76.8409 153.45 77.3693 153.95 77.8011C154.45 78.233 155.308 78.5795 156.524 78.8409L161.263 79.7955C163.808 80.3182 165.706 81.1591 166.956 82.3182C168.206 83.4773 168.831 85 168.831 86.8864C168.831 88.6023 168.325 90.108 167.314 91.4034C166.314 92.6989 164.939 93.7102 163.189 94.4375C161.45 95.1534 159.445 95.5114 157.172 95.5114C153.706 95.5114 150.945 94.7898 148.888 93.3466C146.842 91.892 145.643 89.9148 145.291 87.4148L152.433 87.0398C152.649 88.0966 153.172 88.9034 154.001 89.4602C154.831 90.0057 155.893 90.2784 157.189 90.2784C158.462 90.2784 159.484 90.0341 160.257 89.5455C161.041 89.0455 161.439 88.4034 161.45 87.6193C161.439 86.9602 161.16 86.4205 160.615 86C160.07 85.5682 159.229 85.2386 158.092 85.0114L153.558 84.108C151.001 83.5966 149.098 82.7102 147.848 81.4489C146.609 80.1875 145.99 78.5795 145.99 76.625C145.99 74.9432 146.445 73.4943 147.354 72.2784C148.274 71.0625 149.564 70.125 151.223 69.4659C152.893 68.8068 154.848 68.4773 157.087 68.4773C160.393 68.4773 162.996 69.1761 164.893 70.5739C166.803 71.9716 167.916 73.875 168.234 76.2841Z" fill="#1E1E1E"/>
<path d="M4 46.5455H137.974V49.8182H4V46.5455ZM4 104.545H170.518V107.818H4V104.545Z" fill="#1E1E1E"/>
</g>
<defs>
<filter id="filter0_d_58_938" x="0" y="0.0965576" width="174.518" height="115.722" filterUnits="userSpaceOnUse" color-interpolation-filters="sRGB">
<feFlood flood-opacity="0" result="BackgroundImageFix"/>
<feColorMatrix in="SourceAlpha" type="matrix" values="0 0 0 0 0 0 0 0 0 0 0 0 0 0 0 0 0 0 127 0" result="hardAlpha"/>
<feOffset dy="4"/>
<feGaussianBlur stdDeviation="2"/>
<feComposite in2="hardAlpha" operator="out"/>
<feColorMatrix type="matrix" values="0 0 0 0 0 0 0 0 0 0 0 0 0 0 0 0 0 0 0.25 0"/>
<feBlend mode="normal" in2="BackgroundImageFix" result="effect1_dropShadow_58_938"/>
<feBlend mode="normal" in="SourceGraphic" in2="effect1_dropShadow_58_938" result="shape"/>
</filter>
</defs>
</svg>
