<svg width="64" height="64" viewBox="0 0 64 64" fill="none" xmlns="http://www.w3.org/2000/svg">
<g clip-path="url(#clip0_8_3748)">
<circle cx="32" cy="32" r="32" fill="#EADDFF"/>
<path d="M31.2906 35.5V37H23.6656V35.7109L27.3687 31.6719C27.775 31.2135 28.0953 30.8177 28.3297 30.4844C28.5641 30.151 28.7281 29.8516 28.8219 29.5859C28.9208 29.3151 28.9703 29.0521 28.9703 28.7969C28.9703 28.4375 28.9026 28.1224 28.7672 27.8516C28.637 27.5755 28.4443 27.3594 28.1891 27.2031C27.9339 27.0417 27.624 26.9609 27.2594 26.9609C26.8375 26.9609 26.4833 27.0521 26.1969 27.2344C25.9104 27.4167 25.6943 27.6693 25.5484 27.9922C25.4026 28.3099 25.3297 28.6745 25.3297 29.0859H23.4469C23.4469 28.4245 23.5979 27.8203 23.9 27.2734C24.2021 26.7214 24.6396 26.2839 25.2125 25.9609C25.7854 25.6328 26.4755 25.4688 27.2828 25.4688C28.0432 25.4688 28.6891 25.5964 29.2203 25.8516C29.7516 26.1068 30.1552 26.4688 30.4312 26.9375C30.7125 27.4062 30.8531 27.9609 30.8531 28.6016C30.8531 28.9557 30.7958 29.3073 30.6812 29.6562C30.5667 30.0052 30.4026 30.3542 30.1891 30.7031C29.9807 31.0469 29.7333 31.3932 29.4469 31.7422C29.1604 32.0859 28.8453 32.4349 28.5016 32.7891L26.0406 35.5H31.2906ZM35.0703 30.4609H36.1953C36.6328 30.4609 36.9948 30.3854 37.2812 30.2344C37.5729 30.0833 37.7891 29.875 37.9297 29.6094C38.0703 29.3438 38.1406 29.0391 38.1406 28.6953C38.1406 28.3359 38.0755 28.0286 37.9453 27.7734C37.8203 27.513 37.6276 27.3125 37.3672 27.1719C37.112 27.0312 36.7865 26.9609 36.3906 26.9609C36.0573 26.9609 35.7552 27.0286 35.4844 27.1641C35.2188 27.2943 35.0078 27.4818 34.8516 27.7266C34.6953 27.9661 34.6172 28.2526 34.6172 28.5859H32.7266C32.7266 27.9818 32.8854 27.4453 33.2031 26.9766C33.5208 26.5078 33.9531 26.1406 34.5 25.875C35.0521 25.6042 35.6719 25.4688 36.3594 25.4688C37.0938 25.4688 37.7344 25.5911 38.2812 25.8359C38.8333 26.0755 39.263 26.4349 39.5703 26.9141C39.8776 27.3932 40.0312 27.987 40.0312 28.6953C40.0312 29.0182 39.9557 29.3464 39.8047 29.6797C39.6536 30.013 39.4297 30.3177 39.1328 30.5938C38.8359 30.8646 38.4661 31.0859 38.0234 31.2578C37.5807 31.4245 37.0677 31.5078 36.4844 31.5078H35.0703V30.4609ZM35.0703 31.9297V30.8984H36.4844C37.151 30.8984 37.7188 30.9766 38.1875 31.1328C38.6615 31.2891 39.0469 31.5052 39.3438 31.7812C39.6406 32.0521 39.8568 32.362 39.9922 32.7109C40.1328 33.0599 40.2031 33.4297 40.2031 33.8203C40.2031 34.3516 40.1068 34.8255 39.9141 35.2422C39.7266 35.6536 39.4583 36.0026 39.1094 36.2891C38.7604 36.5755 38.3516 36.7917 37.8828 36.9375C37.4193 37.0833 36.9141 37.1562 36.3672 37.1562C35.8776 37.1562 35.4089 37.0885 34.9609 36.9531C34.513 36.8177 34.112 36.6172 33.7578 36.3516C33.4036 36.0807 33.1224 35.7448 32.9141 35.3438C32.7109 34.9375 32.6094 34.4688 32.6094 33.9375H34.4922C34.4922 34.276 34.5703 34.5755 34.7266 34.8359C34.888 35.0911 35.112 35.2917 35.3984 35.4375C35.6901 35.5833 36.0234 35.6562 36.3984 35.6562C36.7943 35.6562 37.1354 35.5859 37.4219 35.4453C37.7083 35.3047 37.9271 35.0964 38.0781 34.8203C38.2344 34.5443 38.3125 34.2109 38.3125 33.8203C38.3125 33.3776 38.2266 33.0182 38.0547 32.7422C37.8828 32.4661 37.638 32.263 37.3203 32.1328C37.0026 31.9974 36.6276 31.9297 36.1953 31.9297H35.0703Z" fill="#4F378A"/>
</g>
<defs>
<clipPath id="clip0_8_3748">
<rect width="64" height="64" fill="white"/>
</clipPath>
</defs>
</svg>
